HIERARCHY
ROOT Pelvis
{
	OFFSET 0.000000 0.941512 0.000000
	CHANNELS 6 Xposition Yposition Zposition Zrotation Yrotation Xrotation 
	JOINT Pelvis_L_Hip
	{
		OFFSET 0.000000 0.000000 0.000000
		CHANNELS 3 Zrotation Yrotation Xrotation
		JOINT L_Hip
		{
			OFFSET 0.062321 -0.080322 -0.016990
			CHANNELS 3 Zrotation Yrotation Xrotation
			JOINT L_Knee
			{
				OFFSET 0.093051 -0.381305 -0.029784
				CHANNELS 3 Zrotation Yrotation Xrotation
				JOINT L_Ankle
				{
					OFFSET -0.010371 -0.431000 -0.033614
					CHANNELS 3 Zrotation Yrotation Xrotation
					End Site #name: L_Foot
					{
						OFFSET 0.069299 -0.038670 0.119418
					}
				}
			}
		}
	}
	JOINT Pelvis_R_Hip
	{
		OFFSET 0.000000 0.000000 0.000000
		CHANNELS 3 Zrotation Yrotation Xrotation
		JOINT R_Hip
		{
			OFFSET -0.055334 -0.094904 -0.002373
			CHANNELS 3 Zrotation Yrotation Xrotation
			JOINT R_Knee
			{
				OFFSET -0.064207 -0.384370 -0.019592
				CHANNELS 3 Zrotation Yrotation Xrotation
				JOINT R_Ankle
				{
					OFFSET 0.025418 -0.419734 -0.065953
					CHANNELS 3 Zrotation Yrotation Xrotation
					End Site #name: R_Foot
					{
						OFFSET -0.057233 -0.039888 0.132134
					}
				}
			}
		}
	}
	JOINT Pelvis_Spine1
	{
		OFFSET 0.000000 0.000000 0.000000
		CHANNELS 3 Zrotation Yrotation Xrotation
		JOINT Spine1
		{
			OFFSET -0.005562 0.124093 -0.043360
			CHANNELS 3 Zrotation Yrotation Xrotation
			JOINT Spine2
			{
				OFFSET 0.012244 0.139499 0.029894
				CHANNELS 3 Zrotation Yrotation Xrotation
				JOINT Spine3
				{
					OFFSET -0.002556 0.056561 0.009225
					CHANNELS 3 Zrotation Yrotation Xrotation
					JOINT Spine3_Neck
					{
						OFFSET 0.000000 0.000000 0.000000
						CHANNELS 3 Zrotation Yrotation Xrotation
						JOINT Neck
						{
							OFFSET -0.005205 0.217920 -0.024551
							CHANNELS 3 Zrotation Yrotation Xrotation
							End Site #name: Head
							{
								OFFSET 0.002365 0.091850 0.046637
							}
						}
					}
					JOINT Spine3_L_Collar
					{
						OFFSET 0.000000 0.000000 0.000000
						CHANNELS 3 Zrotation Yrotation Xrotation
						JOINT L_Collar
						{
							OFFSET 0.072225 0.116603 -0.009480
							CHANNELS 3 Zrotation Yrotation Xrotation
							JOINT L_Shoulder
							{
								OFFSET 0.115937 -0.058643 -0.021018
								CHANNELS 3 Zrotation Yrotation Xrotation
								JOINT L_Elbow
								{
									OFFSET 0.021994 -0.254722 -0.024492
									CHANNELS 3 Zrotation Yrotation Xrotation
									End Site #name: L_Wrist
									{
										OFFSET 0.048810 -0.240214 0.103329
									}
								}
							}
						}
					}
					JOINT Spine3_R_Collar
					{
						OFFSET 0.000000 0.000000 0.000000
						CHANNELS 3 Zrotation Yrotation Xrotation
						JOINT R_Collar
						{
							OFFSET -0.073372 0.120704 -0.024611
							CHANNELS 3 Zrotation Yrotation Xrotation
							JOINT R_Shoulder
							{
								OFFSET -0.108089 -0.054969 -0.020504
								CHANNELS 3 Zrotation Yrotation Xrotation
								JOINT R_Elbow
								{
									OFFSET -0.033684 -0.260739 0.009889
									CHANNELS 3 Zrotation Yrotation Xrotation
									End Site #name: R_Wrist
									{
										OFFSET -0.067980 -0.232763 0.118463
									}
								}
							}
						}
					}
				}
			}
		}
	}
}
MOTION
Frames: 12
Frame Time: 0.041667
0.043430 0.694650 -0.081537 -0.013308 -26.045587 15.892336 0.000000 0.000000 0.000000 9.885516 -2.579555 -78.681337 -0.459195 3.143932 82.226803 8.145475 -7.867729 -17.687728 0.000000 0.000000 0.000000 -49.929725 0.913248 -31.200345 65.676544 -15.963202 13.519974 -16.747297 -44.167500 -13.071752 0.000000 0.000000 0.000000 20.219782 -8.046064 20.209188 1.587716 1.283058 22.075833 -1.060409 -8.118366 -26.066471 0.000000 0.000000 0.000000 -6.545751 6.055953 18.683956 0.000000 0.000000 0.000000 30.365800 -23.019848 -18.614312 -15.259082 5.535707 20.202434 -10.870599 -17.720901 -33.026098 0.000000 0.000000 0.000000 -26.491024 13.167127 -1.648694 6.451295 0.399230 0.464821 -17.949339 4.490884 -68.871546 
0.041445 0.672785 -0.081422 0.220346 -23.432827 14.804820 0.000000 0.000000 0.000000 11.578361 -2.482399 -80.980473 -4.025053 5.967913 84.689354 8.511251 -6.852577 -17.855879 0.000000 0.000000 0.000000 -51.957937 0.197681 -30.582303 69.665337 -19.406354 15.793594 -16.590365 -44.091442 -14.564107 0.000000 0.000000 0.000000 18.392421 -7.992946 22.306298 -0.436199 2.094812 23.512933 0.572966 -4.665653 -27.328688 0.000000 0.000000 0.000000 -6.173337 5.317343 18.776976 0.000000 0.000000 0.000000 29.184115 -21.670719 -16.251057 -14.484838 5.094884 19.257445 -10.524676 -19.510642 -37.222690 0.000000 0.000000 0.000000 -27.872389 18.529130 -7.129769 0.119572 0.586015 -4.064943 -18.329086 2.140912 -62.139492 
0.039791 0.650302 -0.081861 0.837522 -21.149510 13.644847 0.000000 0.000000 0.000000 13.298342 -2.230792 -83.250428 -7.995917 9.555511 86.488851 8.802029 -5.172028 -17.704413 0.000000 0.000000 0.000000 -54.710341 -0.655584 -30.316946 73.253591 -23.449967 18.606590 -16.185155 -42.991149 -15.283187 0.000000 0.000000 0.000000 16.141190 -7.678019 24.600381 -2.725552 3.040105 24.648051 2.140225 -1.217554 -28.216582 0.000000 0.000000 0.000000 -5.530217 4.404780 18.652814 0.000000 0.000000 0.000000 28.138977 -20.029252 -13.849015 -13.150316 4.478809 17.983375 -10.677897 -21.856722 -41.255751 0.000000 0.000000 0.000000 -30.411986 23.474472 -12.403046 -7.043545 0.196429 -8.583395 -18.475237 -0.281622 -53.065188 
0.038294 0.626090 -0.082647 1.506913 -19.551192 12.965215 0.000000 0.000000 0.000000 15.257804 -1.412135 -85.582506 -12.074380 13.509748 87.551954 9.088896 -3.445910 -17.554143 0.000000 0.000000 0.000000 -57.324037 -1.740755 -31.269429 75.515284 -27.762341 22.286051 -16.006127 -42.415063 -16.198769 0.000000 0.000000 0.000000 14.134215 -7.230711 26.382380 -5.470127 4.364482 26.309346 3.329411 1.818029 -29.341223 0.000000 0.000000 0.000000 -4.092229 2.958367 17.460642 0.000000 0.000000 0.000000 27.626309 -17.785051 -11.201926 -12.110862 3.871735 16.291973 -10.556759 -24.251404 -45.530015 0.000000 0.000000 0.000000 -34.459499 27.636775 -17.393939 -13.827061 -0.608337 -13.208889 -18.282718 -2.656511 -41.124268 
0.034165 0.605794 -0.082692 1.954106 -17.654981 12.046025 0.000000 0.000000 0.000000 17.299278 -0.654481 -87.567199 -16.060473 17.565943 88.610591 9.596185 -1.835789 -17.853517 0.000000 0.000000 0.000000 -59.440064 -2.514806 -30.894441 77.787686 -31.801260 25.431017 -15.461636 -40.320080 -17.177824 0.000000 0.000000 0.000000 12.501832 -6.958707 28.425294 -7.943295 5.680808 28.098486 4.044520 4.531549 -31.094958 0.000000 0.000000 0.000000 -3.274949 2.011987 15.787443 0.000000 0.000000 0.000000 27.005543 -16.563708 -9.496531 -10.801988 3.405633 15.425951 -9.915015 -26.304274 -49.871614 0.000000 0.000000 0.000000 -37.503710 32.005814 -23.182196 -22.809587 -2.188212 -14.504970 -16.333737 -3.709304 -26.099371 
0.030817 0.586057 -0.082980 2.240348 -16.197423 11.144047 0.000000 0.000000 0.000000 19.459850 0.468277 -89.150106 -19.792028 21.339640 88.884735 9.833665 -0.461699 -17.771260 0.000000 0.000000 0.000000 -61.248497 -3.259001 -30.842387 78.969317 -35.589567 28.992395 -14.920746 -38.006227 -17.776722 0.000000 0.000000 0.000000 10.774687 -6.502578 30.233483 -10.453065 7.131868 29.888127 5.002167 7.259287 -32.477107 0.000000 0.000000 0.000000 -2.200770 1.076692 14.857916 0.000000 0.000000 0.000000 26.445829 -15.314127 -7.888371 -9.363753 2.917033 14.331840 -9.370653 -28.310839 -53.731824 0.000000 0.000000 0.000000 -42.191919 35.304288 -28.724634 -30.663420 -3.482330 -14.231968 -12.911661 -4.050341 -11.989581 
0.028861 0.569050 -0.083718 2.534959 -14.879151 10.333865 0.000000 0.000000 0.000000 21.248630 1.371488 -90.495665 -22.982300 24.469898 88.751754 9.942277 0.593676 -17.576123 0.000000 0.000000 0.000000 -62.707186 -4.008049 -30.984532 79.240324 -39.074328 32.851612 -14.491019 -35.970195 -18.258896 0.000000 0.000000 0.000000 9.257876 -6.113450 32.262445 -12.898070 8.315476 30.349368 5.996999 9.680909 -33.144507 0.000000 0.000000 0.000000 -0.903995 0.096973 14.857303 0.000000 0.000000 0.000000 26.398641 -13.518065 -5.900481 -8.638651 2.502967 12.673492 -9.051498 -30.287151 -57.063442 0.000000 0.000000 0.000000 -47.005942 36.935220 -32.923602 -36.842534 -4.421785 -13.994088 -8.343625 -4.184266 0.599123 
0.025959 0.553573 -0.083786 2.551939 -14.072067 9.927797 0.000000 0.000000 0.000000 23.293775 2.841593 -91.626633 -25.937121 27.285429 88.385137 10.022832 1.260901 -17.481702 0.000000 0.000000 0.000000 -63.670160 -4.684603 -31.550838 78.802702 -42.017716 36.679115 -14.105037 -34.016261 -18.675448 0.000000 0.000000 0.000000 7.826907 -5.577465 33.504873 -15.079185 9.412730 30.698999 7.071190 11.829367 -33.644197 0.000000 0.000000 0.000000 0.018220 -0.626320 15.379780 0.000000 0.000000 0.000000 26.199926 -11.702817 -4.013497 -7.836966 2.164755 11.387339 -8.857130 -32.279580 -60.034002 0.000000 0.000000 0.000000 -51.314451 37.807844 -36.262422 -41.115433 -5.049574 -13.891953 -3.800602 -4.572648 10.937772 
0.025501 0.539954 -0.084188 2.600217 -13.119637 9.596455 0.000000 0.000000 0.000000 24.588054 3.601103 -93.044801 -28.021981 29.300054 88.384190 9.991751 1.625327 -17.302944 0.000000 0.000000 0.000000 -64.685448 -5.269098 -31.683181 78.433046 -44.367786 39.696885 -13.831276 -32.403058 -19.127782 0.000000 0.000000 0.000000 7.114751 -5.448807 34.775264 -16.738575 10.029596 30.242296 7.620130 13.170419 -33.600611 0.000000 0.000000 0.000000 0.766172 -1.198216 15.470952 0.000000 0.000000 0.000000 26.180879 -10.588098 -2.798671 -7.432390 1.977767 10.555530 -8.650160 -33.602363 -62.137529 0.000000 0.000000 0.000000 -54.824451 38.291206 -38.936006 -44.454508 -5.472584 -13.621888 0.487022 -5.109632 19.144811 
0.024955 0.528307 -0.084571 2.441128 -12.365001 9.485165 0.000000 0.000000 0.000000 25.697634 4.333915 -94.392820 -29.611456 30.856977 88.472964 10.020566 2.032149 -17.219072 0.000000 0.000000 0.000000 -65.588815 -5.700482 -31.640746 78.571205 -46.158535 41.588941 -13.571193 -30.873139 -19.379193 0.000000 0.000000 0.000000 6.491593 -5.284258 35.493207 -17.743364 10.393988 29.987250 8.128907 14.185377 -33.394669 0.000000 0.000000 0.000000 1.250514 -1.564593 15.337200 0.000000 0.000000 0.000000 26.282141 -9.775973 -1.891275 -7.082366 1.842314 9.963217 -8.867728 -34.850374 -63.322811 0.000000 0.000000 0.000000 -56.766210 38.584572 -40.653621 -46.594028 -5.721160 -13.420328 3.075574 -5.680704 24.199392 
0.024375 0.518918 -0.084998 2.085768 -11.794759 9.660922 0.000000 0.000000 0.000000 26.535279 4.962095 -95.803992 -30.499327 31.860217 88.922956 10.035162 2.278702 -17.173620 0.000000 0.000000 0.000000 -66.156598 -6.004511 -31.611644 79.227079 -47.444407 42.392894 -13.432786 -29.913205 -19.595585 0.000000 0.000000 0.000000 5.969343 -5.091971 35.610541 -18.105414 10.563455 30.085846 8.628415 14.845552 -33.266287 0.000000 0.000000 0.000000 1.499009 -1.753103 15.224269 0.000000 0.000000 0.000000 26.234373 -9.312946 -1.388315 -6.536618 1.762841 9.914105 -9.347186 -36.229851 -64.113611 0.000000 0.000000 0.000000 -57.397601 38.755029 -41.430533 -47.604195 -5.795979 -13.187059 3.857820 -5.641641 24.797820 
0.023572 0.511583 -0.085283 1.725618 -11.446563 9.863275 0.000000 0.000000 0.000000 27.088538 5.439708 -96.967805 -30.799589 32.419557 89.658133 10.069065 2.334499 -17.236707 0.000000 0.000000 0.000000 -66.427988 -6.212002 -31.681061 79.707750 -48.373015 42.971757 -13.352455 -29.302517 -19.764467 0.000000 0.000000 0.000000 5.622542 -4.944544 35.526271 -18.080873 10.543217 30.130629 8.856354 15.043178 -33.089238 0.000000 0.000000 0.000000 1.618332 -1.849579 15.315220 0.000000 0.000000 0.000000 26.363310 -9.239237 -1.261642 -5.969921 1.736308 10.253469 -9.654604 -37.344886 -64.877456 0.000000 0.000000 0.000000 -57.479569 38.913999 -41.801875 -47.841402 -5.878636 -13.369793 3.886407 -5.566364 24.540999 
